<?xml version="1.0" encoding="UTF-8" standalone="no"?>
<!-- Uploaded to: SVG Repo, www.svgrepo.com, Generator: SVG Repo Mixer Tools -->

<svg
   height="800px"
   width="800px"
   version="1.1"
   id="_x32_"
   viewBox="0 0 512 512"
   xml:space="preserve"
   sodipodi:docname="SceneStep.svg"
   inkscape:version="1.3 (0e150ed6c4, 2023-07-21)"
   xmlns:inkscape="http://www.inkscape.org/namespaces/inkscape"
   xmlns:sodipodi="http://sodipodi.sourceforge.net/DTD/sodipodi-0.dtd"
   xmlns="http://www.w3.org/2000/svg"
   xmlns:svg="http://www.w3.org/2000/svg"><defs
   id="defs2" /><sodipodi:namedview
   id="namedview2"
   pagecolor="#505050"
   bordercolor="#ffffff"
   borderopacity="1"
   inkscape:showpageshadow="0"
   inkscape:pageopacity="0"
   inkscape:pagecheckerboard="1"
   inkscape:deskcolor="#505050"
   inkscape:zoom="1.0175"
   inkscape:cx="399.5086"
   inkscape:cy="400"
   inkscape:window-width="1920"
   inkscape:window-height="1010"
   inkscape:window-x="1913"
   inkscape:window-y="-6"
   inkscape:window-maximized="1"
   inkscape:current-layer="g2" />&#10;<style
   type="text/css"
   id="style1">&#10;	.st0{fill:#FFFFFF;}&#10;</style>&#10;<g
   id="g2">&#10;	<path
   class="st0"
   d="M256,0C114.838,0,0,114.837,0,256s114.838,256,256,256c141.163,0,256-114.837,256-256S397.163,0,256,0z    M256,466.052c-115.998,0-210.052-94.054-210.052-210.052S140.002,45.948,256,45.948S466.052,140.002,466.052,256   S371.998,466.052,256,466.052z"
   id="path1"
   style="fill:#6e9e2d;fill-opacity:1" />&#10;	<path
   class="st0"
   d="M293.372,254.177c-0.107-0.093-0.164-0.228-0.292-0.299l-105.721-63.12c-0.755-0.441-1.716-0.47-2.5-0.021   c-0.756,0.435-1.246,1.275-1.246,2.158v63.113v63.085c0,0.912,0.491,1.738,1.246,2.158c0.784,0.463,1.745,0.435,2.5-0.007   l105.721-63.12c0.128-0.071,0.184-0.199,0.292-0.299v58.548h35V193.834h-35V254.177z"
   id="path2"
   style="fill:#6e9e2d;fill-opacity:1" />&#10;</g>&#10;</svg>
