<?xml version="1.0" encoding="UTF-8" standalone="no"?>
<!-- Uploaded to: SVG Repo, www.svgrepo.com, Transformed by: SVG Repo Mixer Tools -->

<svg
   width="800px"
   height="800px"
   viewBox="0 0 24 24"
   fill="#ffffff"
   version="1.1"
   id="svg2"
   sodipodi:docname="SelectForbidden.svg"
   inkscape:version="1.3 (0e150ed6c4, 2023-07-21)"
   xmlns:inkscape="http://www.inkscape.org/namespaces/inkscape"
   xmlns:sodipodi="http://sodipodi.sourceforge.net/DTD/sodipodi-0.dtd"
   xmlns="http://www.w3.org/2000/svg"
   xmlns:svg="http://www.w3.org/2000/svg">
  <defs
     id="defs2" />
  <sodipodi:namedview
     id="namedview2"
     pagecolor="#505050"
     bordercolor="#ffffff"
     borderopacity="1"
     inkscape:showpageshadow="0"
     inkscape:pageopacity="0"
     inkscape:pagecheckerboard="1"
     inkscape:deskcolor="#505050"
     inkscape:zoom="0.71948115"
     inkscape:cx="395.42384"
     inkscape:cy="276.58821"
     inkscape:window-width="1920"
     inkscape:window-height="1010"
     inkscape:window-x="1913"
     inkscape:window-y="-6"
     inkscape:window-maximized="1"
     inkscape:current-layer="SVGRepo_iconCarrier" />
  <g
     id="SVGRepo_bgCarrier"
     stroke-width="0" />
  <g
     id="SVGRepo_tracerCarrier"
     stroke-linecap="round"
     stroke-linejoin="round" />
  <g
     id="SVGRepo_iconCarrier">
    <path
       fill="none"
       d="M0 0h24v24H0z"
       id="path2" />
    <path
       fill="none"
       d="M 0,0 H 24 V 24 H 0 Z"
       id="path2-1" />
    <path
       d="M 0.6424193,7.4811818 C 0.56940488,11.453347 3.730408,14.732734 7.7025729,14.805748 11.675882,14.878784 14.954126,11.717759 15.02714,7.7455948 15.100176,3.7722856 11.940317,0.4929191 7.967007,0.41988364 3.9948524,0.34629725 0.71546527,3.5072996 0.6424193,7.4811818 Z M 7.9268443,2.6048326 C 8.9128752,2.6229579 9.8272414,2.9271438 10.59417,3.4352831 L 3.5586898,10.215659 C 3.0790696,9.4311481 2.8075366,8.5067722 2.8256614,7.5207405 2.8758552,4.7589282 5.1638976,2.5540456 7.9268443,2.6048326 Z M 7.7427356,12.6208 C 6.7555603,12.602654 5.8423385,12.298489 5.0753899,11.791495 L 12.11089,5.0099729 c 0.477342,0.7838974 0.749988,1.7100118 0.731864,2.6960421 -0.05019,2.76124 -2.338788,4.965541 -5.1000184,4.914785 z"
       id="path1-6"
       style="fill:#ff8080;stroke-width:0.572372" />
    <path
       d="M 21.813,15 H 16.36 l 3.032,6.049 -3.94,1.981 L 12.346,16.878 9,21.462 V 5.65 Z m -7.074,-1 h 4.007 L 10,7.618 v 10.777 l 2.501,-3.427 3.393,6.72 2.155,-1.084 z"
       id="path1"
       sodipodi:nodetypes="cccccccccccccccc" />
  </g>
</svg>
